{"title":"O 2001 DVDRip Xvid BigPerm LKRG","uid":6652209,"size":939092267,"categoryP":"video","categoryS":"movies","magnet":"?xt=urn:btih:21cb74f35340deea97a8e332e7ce2f11c6594a7a&amp;dn=O+2001+DVDRip+Xvid+BigPerm+LKRG&amp;tr=udp%3A%2F%2Ftracker.openbittorrent.com%3A80&amp;tr=udp%3A%2F%2Fopen.demonii.com%3A1337&amp;tr=udp%3A%2F%2Ftracker.coppersurfer.tk%3A6969&amp;tr=udp%3A%2F%2Fexodus.desync.com%3A6969","seeders":3,"leechers":1,"uploader":".BONE.","files":2,"time":1315201794,"description":"\nPLOT\n\nAn update of Shakespeare's 'Othello' with a young cast, set in a high school and\ncentered around basketball player Odin.\n &lt;a href=&quot;\nhttp://www.imdb.com/title/tt0184791/&quot; rel=&quot;nofollow&quot; target=&quot;_NEW&quot;&gt;\nhttp://www.imdb.com/title/tt0184791/&lt;/a&gt;\n\nEncoded By .......: BigPerm1828\nRuntime ..........: 1h 34mn\nFile Size ........: 896 MB\nResolution .......: 704 x 396\nIMDb URL .........: http://www.imdb.com/title/tt0184791/\nGenre ............: Drama | Romance | Thriller\nLanguage .........: English\nSubtitles ........: None\nVideo\nID : 0\nFormat : MPEG-4 Visual\nFormat profile : Advanced Simple@L5\nFormat settings, BVOP : Yes\nFormat settings, QPel : No\nFormat settings, GMC : No warppoints\nFormat settings, Matrix : Default (H.263)\nCodec ID : XVID\nCodec ID/Hint : XviD\nDuration : 1h 34mn\nBit rate : 871 Kbps\nWidth : 704 pixels\nHeight : 396 pixels\nDisplay aspect ratio : 16:9\nFrame rate : 23.976 fps\nColor space : YUV\nChroma subsampling : 4:2:0\nBit depth : 8 bits\nScan type : Progressive\nCompression mode : Lossy\nBits/(Pixel*Frame) : 0.130\nStream size : 589 MiB (66%)\nWriting library : XviD 1.2.1 (UTC 2008-12-04)\n\nAudio\nID : 1\nFormat : AC-3\nFormat/Info : Audio Coding 3\nMode extension : CM (complete main)\nCodec ID : 2000\nDuration : 1h 34mn\nBit rate mode : Constant\nBit rate : 448 Kbps\nChannel(s) : 6 channels\nChannel positions : Front: L C R, Side: L R, LFE\nSampling rate : 48.0 KHz\nBit depth : 16 bits\nCompression mode : Lossy\nVideo delay : 42ms\nStream size : 303 MiB (34%)\nAlignment : Split accross interleaves\nInterleave, duration : 500 ms (11.99 video frames)\nInterleave, preload duration : 500 ms\n\n\n\n\n\n","torrent":{"xt":"urn:btih:21cb74f35340deea97a8e332e7ce2f11c6594a7a","amp;dn":"O+2001+DVDRip+Xvid+BigPerm+LKRG","amp;tr":["udp%3A%2F%2Ftracker.openbittorrent.com%3A80","udp%3A%2F%2Fopen.demonii.com%3A1337","udp%3A%2F%2Ftracker.coppersurfer.tk%3A6969","udp%3A%2F%2Fexodus.desync.com%3A6969"],"infoHash":"21cb74f35340deea97a8e332e7ce2f11c6594a7a","infoHashBuffer":{"type":"Buffer","data":[33,203,116,243,83,64,222,234,151,168,227,50,231,206,47,17,198,89,74,122]},"announce":[],"urlList":[]}}